<svg id="Layer_1" data-name="Layer 1" xmlns="http://www.w3.org/2000/svg" viewBox="0 0 488.03 396.88"><defs><style>.cls-1{fill:#00cc6f;}.cls-1,.cls-10,.cls-2,.cls-3,.cls-4,.cls-5,.cls-6,.cls-7,.cls-9{stroke:#000;}.cls-1,.cls-10,.cls-2,.cls-3,.cls-4,.cls-5,.cls-6,.cls-7,.cls-8,.cls-9{stroke-miterlimit:10;}.cls-2{fill:#00bd00;}.cls-3{fill:#c7cbff;}.cls-5,.cls-6{fill:none;}.cls-5{stroke-width:4px;}.cls-6{stroke-width:3px;}.cls-7,.cls-8{stroke-width:0.5px;}.cls-10,.cls-8,.cls-9{fill:#1a1a1a;}.cls-8{stroke:#333;}.cls-10{stroke-width:2px;}</style></defs><path class="cls-1" d="M243.78,109.22c16,.49,28.92,25.49,28.92,56.25s-12.91,55.77-28.92,56.25l-.27-.22h81.93c16-.49,28.92-25.49,28.92-56.26S341.45,109.48,325.44,109H243.51" transform="translate(-5.51 -51.37)"/><path class="cls-2" d="M347.73,111.08c0,8,20.18,25.62,15.78,56.07s-15.94,57.06-31.86,55.3l-.24-.25,53.94,3.07h0c15.92,1.76,42.2-21,46.6-51.43s6.65-38.34-9.13-41.06h0L347.5,110.81Z" transform="translate(-5.51 -51.37)"/><path class="cls-1" d="M442.55,146.17c5.79,1.91,72.3,52.45,21.21,87.73-32.44,22.41-60.63,21.35-76.29,1.37-.72-.92-1.39-1.87-2-2.83,14.85-5.61,30.23-12,43.43-27.59,15.75-18.66,9.06-45.15,12.26-59.32C440.63,145.22,440.63,145.54,442.55,146.17Z" transform="translate(-5.51 -51.37)"/><path class="cls-2" d="M489.06,219.05c8.44-1.36,4.58,63.48-22.41,67.3-39.17,5.53-69.4-1.91-77.48-33.48a9.65,9.65,0,0,1,.28-3.45c15.05,5.06,38.88,9.4,57.92,1.65,16.39-6.68,29.42-24.51,41-33.4C488.19,217.1,487.06,219.37,489.06,219.05Z" transform="translate(-5.51 -51.37)"/><path class="cls-1" d="M487.86,277.77s-40.52,72.94-81.93,87.72c-6.19,2.21-30.28.77-33.74-4.76-19.3-30.83,17.41-95,17.41-95l.4.18c9.72,20.27,34.81,28.88,63.62,28.5C472,294.17,487.86,277.77,487.86,277.77Z" transform="translate(-5.51 -51.37)"/><path class="cls-2" d="M421.87,362c1.54-2.74-56.83,72-98.89,80.08-6.46,1.25-13.83-9.26-15.37-15.59-6.75-27.65,55.24-99.71,55.24-99.71l.37.24c1.69,20.75-3.49,33.19,14.67,41.76C394.47,376.62,421.87,362,421.87,362Z" transform="translate(-5.51 -51.37)"/><path class="cls-1" d="M319,385.56c-5.94,2.16-16.84,20.42-15.85,38s19.06,22.71,25.2,24.2L213.37,421.54Z" transform="translate(-5.51 -51.37)"/><path class="cls-2" d="M310.82,384.71l-98.46,32.8s-79.54-40.72-57.05-45.34c1.55-.32,9.49.07,21,.87l40,17.33-18.54-15.7C243.92,378.38,310.82,384.71,310.82,384.71Z" transform="translate(-5.51 -51.37)"/><path class="cls-2" d="M263.27,167.15c0,30.29-14.27,52.92-24.15,52.92h-.49S85,177.64,77.24,145.22c-2.65-11.14-1-6.68-1-6.68,6,8.71,0,13.35,48.32,19.12,6.1.73,12,1.29,17.5,1.6-33.25-6.08-51.36-14-58.11-21.67a1.38,1.38,0,0,1-.29-.49l154.94-26.69v0l.49,0C251.57,110.41,263.27,136.87,263.27,167.15Z" transform="translate(-5.51 -51.37)"/><ellipse class="cls-3" cx="146.04" cy="108.15" rx="7.71" ry="7.63"/><path class="cls-4" d="M152.11,154.53a5.86,5.86,0,0,0-1.6.15,5,5,0,0,0-4,5.8l.2.81a2.78,2.78,0,0,1-.88-1.71,4.46,4.46,0,0,1,3.35-5.36A4.52,4.52,0,0,1,152.11,154.53Z" transform="translate(-5.51 -51.37)"/><path class="cls-5" d="M264.68,221.3a110.05,110.05,0,0,1-21.21,33,145.28,145.28,0,0,1-38.64,29.67" transform="translate(-5.51 -51.37)"/><path class="cls-5" d="M276.37,220.16a109.42,109.42,0,0,1-7.91,38.28,143.47,143.47,0,0,1-25.38,41.36" transform="translate(-5.51 -51.37)"/><path class="cls-5" d="M291.49,220.46a109.12,109.12,0,0,1-.17,39.07A142.66,142.66,0,0,1,274.64,305" transform="translate(-5.51 -51.37)"/><path class="cls-5" d="M308.3,220.19a109.34,109.34,0,0,1,4.08,38.86,142.34,142.34,0,0,1-11.65,47" transform="translate(-5.51 -51.37)"/><path class="cls-5" d="M344.91,222.05c-2.12.6-11.19,3.43-15.84,12.28a23.19,23.19,0,0,0-2.57,9.19" transform="translate(-5.51 -51.37)"/><path class="cls-5" d="M362.81,223.13c-2.1.66-11.09,3.74-15.49,12.72a23,23,0,0,0-2.31,9.26" transform="translate(-5.51 -51.37)"/><path class="cls-5" d="M382.5,224.5c-2.15.46-11.39,2.68-16.64,11.2a23.08,23.08,0,0,0-3.2,9" transform="translate(-5.51 -51.37)"/><path class="cls-5" d="M361.08,247.4" transform="translate(-5.51 -51.37)"/><path class="cls-5" d="M376.37,223.65" transform="translate(-5.51 -51.37)"/><path class="cls-5" d="M393.62,237.6c-2.2.12-11.68.87-18.22,8.47a23,23,0,0,0-4.58,8.38" transform="translate(-5.51 -51.37)"/><path class="cls-5" d="M395.22,258.66c-2.19-.27-11.65-1.19-19.45,5.14a23.37,23.37,0,0,0-6,7.45" transform="translate(-5.51 -51.37)"/><path class="cls-6" d="M79.71,149.31c-37.89-8.12-49-9.74-64.69-27.62C11.76,118,1.85,100.31,10.4,86c9.88-16.57,38.26-17.64,44.36-17.87,25.23-1,52.93-5.45,99.22,19,23,12.18,41.8,11,64.27,14.27a131.59,131.59,0,0,0,37,0" transform="translate(-5.51 -51.37)"/><path class="cls-6" d="M77.06,143C39.12,129.15,39.12,129.15,20,110c-3.58-3.58-12.61-23.21-4.42-38.79,9.45-18,31.78-16.12,37.62-16.37,24.15-1,43.06-8.42,95.92,14.59,26.07,11.35,39,7.92,60.54,11.46,14.51,2.38,27,3.34,35.38,2" transform="translate(-5.51 -51.37)"/><path class="cls-7" d="M156.22,289.34c-12.74-2.76-36.11-9-46.15-9.37a29.88,29.88,0,0,0-.51,11c.21,1.39,1.23,8.25,1.88,8.34,15.14,3.38,30.95,6,45.85,10.35,4,1.14,19.69,4.21,25,5.38,35.94,8,42.8,8.3,62.56,12.68,15.66,3.48,28.46,5.93,45.16,9.23.68-5-2.33-6.88-4.85-8.74-12.18-9-22.69-17.74-37.59-20.3-2.55-.44-7.79-2.08-7.79-2.08Z" transform="translate(-5.51 -51.37)"/><path class="cls-8" d="M239.75,305.86l-1.88-8.34s-3.57-.63-6-.81-3.78-.45-6.08.17c-1.26,1.85-.82,5.95-1.81,5.81-4-.54-.89-8.2-2.87-8.47-4-.54-8.09-1.38-12-.64l-1.81,5.81c-3.11.58-2.23-8.12-2.88-8.47-.87-.49-4.95-.68-6.93-1a14.54,14.54,0,0,0-6.08.18c-.68,4.95.11,6.31-.82,5.94-3.82-1.53-.31-5.09-3.73-9.59l-4.95-.68L176,285c-1-.14-1.09,7.92-2.08,7.79-4-.55-1.61-10.32-3.6-10.59-.88-.12-4.81-1.67-7.79-2.08l-3-.41c-1.4,2.84-2.21,6.6-3.34,9.64Z" transform="translate(-5.51 -51.37)"/><path class="cls-9" d="M214,121.43c.82-13.55.82-40.88,0-54.43l8,.37c-.83,13.56-.83,40.88,0,54.43Z" transform="translate(-5.51 -51.37)"/><circle class="cls-10" cx="212.45" cy="82.67" r="14.96"/></svg>